<?xml version="1.0" encoding="UTF-8" standalone="no"?><!DOCTYPE svg PUBLIC "-//W3C//DTD SVG 1.1//EN" "http://www.w3.org/Graphics/SVG/1.1/DTD/svg11.dtd"><svg width="100%" height="100%" viewBox="0 0 1512 236" version="1.1" xmlns="http://www.w3.org/2000/svg" xmlns:xlink="http://www.w3.org/1999/xlink" xml:space="preserve" xmlns:serif="http://www.serif.com/" style="fill-rule:evenodd;clip-rule:evenodd;stroke-linecap:square;stroke-miterlimit:1.5;"><rect id="Artboard-black-v2" x="-349.964" y="-2.316" width="1898.54" height="240.661" style="fill:none;"/><g><g><path d="M-205.019,191.417c-0.002,1.251 -0.033,14.756 -0.048,15.635c50.176,4.772 100.352,9.544 150.529,14.315l-0,-205.566c-50.041,5.554 -100.082,11.107 -150.123,16.66c-0.01,4.519 -0.02,9.038 -0.03,13.557" style="fill:none;stroke:#0c6500;stroke-width:8.33px;"/></g></g><g transform="matrix(1.33333,0,0,1.33333,-3651.44,-538.163)"><g transform="matrix(1.16,0,0,1.08,-437.205,-40.7008)"><text x="2733.12px" y="508.76px" style="font-family:'FiraSans-SemiBold', 'Fira Sans', sans-serif;font-weight:600;font-size:137.5px;">C<tspan x="2812.82px 2894.58px 2980.19px 3089.18px 3162.96px 3233.54px 3267.68px 3350.68px 3446.88px 3537.99px 3631.03px " y="508.76px 508.76px 508.76px 508.76px 508.76px 508.76px 508.76px 508.76px 508.76px 508.76px 508.76px ">ARMEL POUND</tspan></text></g><g transform="matrix(1.16,0,-0.286745,1,-271.009,0)"><g transform="matrix(50,0,0,50,3029.76,579.594)"></g><text x="2732.74px" y="579.594px" style="font-family:'FiraSans-Regular', 'Fira Sans', sans-serif;font-size:50px;">P<tspan x="2761.36px 2788.18px 2814.78px 2843.21px 2877.64px 2912.67px 2936.06px 2971.09px 3002.04px " y="579.594px 579.594px 579.594px 579.594px 579.594px 579.594px 579.594px 579.594px 579.594px ">SYCHOLOGY</tspan></text></g></g></svg>