<?xml version="1.0" encoding="UTF-8" standalone="no"?><!DOCTYPE svg PUBLIC "-//W3C//DTD SVG 1.1//EN" "http://www.w3.org/Graphics/SVG/1.1/DTD/svg11.dtd"><svg width="100%" height="100%" viewBox="0 0 1899 241" version="1.1" xmlns="http://www.w3.org/2000/svg" xmlns:xlink="http://www.w3.org/1999/xlink" xml:space="preserve" xmlns:serif="http://www.serif.com/" style="fill-rule:evenodd;clip-rule:evenodd;stroke-linecap:square;stroke-miterlimit:1.5;"><rect id="Artboard-black-v2" x="0" y="0" width="1898.54" height="240.661" style="fill:none;"/><g><g><path d="M144.945,193.733c-0.003,1.251 -0.033,14.756 -0.049,15.635c50.177,4.772 100.353,9.544 150.529,14.315l0,-205.566c-50.041,5.554 -100.081,11.107 -150.122,16.66c-0.01,4.519 -0.02,9.038 -0.031,13.557" style="fill:none;stroke:#0c6500;stroke-width:8.33px;"/></g></g><g transform="matrix(1.33333,0,0,1.33333,-597.857,-751.235)"><g transform="matrix(0.9,0,0,1,44.927,0)"><text x="449.525px" y="644.458px" style="font-family:'FiraSans-Medium', 'Fira Sans', sans-serif;font-weight:500;font-size:45.833px;">C<tspan x="476.067px 503.297px 531.811px 568.162px 592.962px " y="644.458px 644.458px 644.458px 644.458px 644.458px ">ARMEL</tspan></text></g><g transform="matrix(0.96,0,0,1,17.9708,0)"><g transform="matrix(45.8333,0,0,45.8333,600.982,694.458)"></g><text x="449.509px" y="694.458px" style="font-family:'FiraSans-Medium', 'Fira Sans', sans-serif;font-weight:500;font-size:45.833px;">P<tspan x="477.074px 509.222px 539.766px 571.043px " y="694.458px 694.458px 694.458px 694.458px ">OUND</tspan></text></g></g><circle cx="312.992" cy="22.949" r="7.894" style="fill:#0c6500;"/><g transform="matrix(0.87156,0,0,1,-115.967,0)"><g transform="matrix(24.2222,0,0,24.2222,283.32,206.133)"></g><text x="137.585px" y="206.133px" style="font-family:'FiraSans-Medium', 'Fira Sans', sans-serif;font-weight:500;font-size:24.222px;">P<tspan x="151.696px 165.006px 178.298px 192.311px 208.843px 225.836px 237.251px 254.243px 269.289px " y="206.133px 206.133px 206.133px 206.133px 206.133px 206.133px 206.133px 206.133px 206.133px ">SYCHOLOGY</tspan></text></g><g transform="matrix(1.33333,0,0,1.33333,-3301.48,-535.847)"><g transform="matrix(1.16,0,0,1.08,-437.205,-40.7008)"><text x="2733.12px" y="508.76px" style="font-family:'FiraSans-SemiBold', 'Fira Sans', sans-serif;font-weight:600;font-size:137.5px;">C<tspan x="2812.82px 2894.58px 2980.19px 3089.18px 3162.96px 3233.54px 3267.68px 3350.68px 3446.88px 3537.99px 3631.03px " y="508.76px 508.76px 508.76px 508.76px 508.76px 508.76px 508.76px 508.76px 508.76px 508.76px 508.76px ">ARMEL POUND</tspan></text></g><g transform="matrix(1.16,0,-0.286745,1,-271.009,0)"><g transform="matrix(50,0,0,50,3029.76,579.594)"></g><text x="2732.74px" y="579.594px" style="font-family:'FiraSans-Regular', 'Fira Sans', sans-serif;font-size:50px;">P<tspan x="2761.36px 2788.18px 2814.78px 2843.21px 2877.64px 2912.67px 2936.06px 2971.09px 3002.04px " y="579.594px 579.594px 579.594px 579.594px 579.594px 579.594px 579.594px 579.594px 579.594px ">SYCHOLOGY</tspan></text></g></g></svg>