<?xml version="1.0" encoding="UTF-8" standalone="no"?><!DOCTYPE svg PUBLIC "-//W3C//DTD SVG 1.1//EN" "http://www.w3.org/Graphics/SVG/1.1/DTD/svg11.dtd"><svg width="100%" height="100%" viewBox="0 0 2663 1855" version="1.1" xmlns="http://www.w3.org/2000/svg" xmlns:xlink="http://www.w3.org/1999/xlink" xml:space="preserve" xmlns:serif="http://www.serif.com/" style="fill-rule:evenodd;clip-rule:evenodd;stroke-linecap:square;stroke-miterlimit:1.5;"><rect id="Artboard-white" x="0" y="0" width="2662.68" height="1854.55" style="fill:none;"/><g><g><path d="M1216.48,1512.89c-0.094,40.856 -0.188,81.711 -0.282,122.567c418.262,40.093 836.524,80.185 1254.79,120.278l-0,-1670.88c-417.179,45.51 -834.357,91.021 -1251.54,136.531c-0.082,35.619 -0.164,71.238 -0.246,106.857" style="fill:none;stroke:#fff;stroke-width:35.36px;"/></g></g><g transform="matrix(1,0,0,1,-365.525,-99.4275)"><g transform="matrix(1.16,0,0,1.23,-71.8832,-220.278)"><text x="451.102px" y="957.729px" style="font-family:'FiraSans-Bold', 'Fira Sans', sans-serif;font-weight:700;font-size:425px;fill:#fff;">C<tspan x="699.141px 953.554px 1219.44px 1557.16px 1784.37px " y="957.729px 957.729px 957.729px 957.729px 957.729px ">ARMEL</tspan></text></g><g transform="matrix(1.29,0,0,1.23,-130.288,-319.944)"><g transform="matrix(458.333,0,0,458.333,1959.37,1391.06)"></g><text x="451.046px" y="1391.06px" style="font-family:'FiraSans-Bold', 'Fira Sans', sans-serif;font-weight:700;font-size:458.333px;fill:#fff;">P<tspan x="729.599px 1049.86px 1351.79px 1659.22px " y="1391.06px 1391.06px 1391.06px 1391.06px ">OUND</tspan></text></g></g><circle cx="2555.03" cy="350.059" r="43.682" style="fill:#fff;"/><g transform="matrix(0.899225,0,0,1,-15.0905,0)"><g transform="matrix(161.25,0,0,161.25,1732.23,1450.57)"></g><text x="774.372px" y="1450.57px" style="font-family:'FiraSans-Regular', 'Fira Sans', sans-serif;font-size:161.25px;fill:#fff;">P<tspan x="866.669px 953.16px 1038.93px 1130.62px 1241.66px 1354.63px 1430.07px 1543.05px 1642.85px " y="1450.57px 1450.57px 1450.57px 1450.57px 1450.57px 1450.57px 1450.57px 1450.57px 1450.57px ">SYCHOLOGY</tspan></text></g></svg>