<?xml version="1.0" encoding="UTF-8" standalone="no"?><!DOCTYPE svg PUBLIC "-//W3C//DTD SVG 1.1//EN" "http://www.w3.org/Graphics/SVG/1.1/DTD/svg11.dtd"><svg width="100%" height="100%" viewBox="0 0 2663 1855" version="1.1" xmlns="http://www.w3.org/2000/svg" xmlns:xlink="http://www.w3.org/1999/xlink" xml:space="preserve" xmlns:serif="http://www.serif.com/" style="fill-rule:evenodd;clip-rule:evenodd;stroke-linecap:square;stroke-miterlimit:1.5;"><rect id="Artboard-black" x="0" y="0" width="2662.68" height="1854.55" style="fill:none;"/><g><g><path d="M1216.48,1512.89c-0.094,40.856 -0.188,81.711 -0.282,122.567c418.262,40.093 836.524,80.185 1254.79,120.278l-0,-1670.88c-417.179,45.51 -834.357,91.021 -1251.54,136.531c-0.082,35.619 -0.164,71.238 -0.246,106.857" style="fill:none;stroke:#000;stroke-width:35.36px;"/></g></g><g transform="matrix(1,0,0,1,-381.962,-220.244)"><g transform="matrix(1.16,0,0,1.03,-71.8832,-30.7531)"><text x="451.641px" y="1025.1px" style="font-family:'FiraSans-Medium', 'Fira Sans', sans-serif;font-weight:500;font-size:550px;">C<tspan x="768.782px 1094.17px 1434.96px 1869.81px 2166.05px " y="1025.1px 1025.1px 1025.1px 1025.1px 1025.1px ">ARMEL</tspan></text></g><g transform="matrix(1.29,0,0,1.03,-130.288,-43.7531)"><g transform="matrix(550,0,0,550,2262.49,1458.44)"></g><text x="451.402px" y="1458.44px" style="font-family:'FiraSans-Medium', 'Fira Sans', sans-serif;font-weight:500;font-size:550px;">P<tspan x="780.715px 1165.03px 1530.09px 1903.96px " y="1458.44px 1458.44px 1458.44px 1458.44px ">OUND</tspan></text></g></g><circle cx="2555.03" cy="350.059" r="43.682"/><g transform="matrix(1,0,0,0.939655,-3.55271e-15,-55.8255)"><g transform="matrix(145,0,0,145,1663.31,1571.71)"></g><text x="801.98px" y="1571.71px" style="font-family:'FiraSans-Regular', 'Fira Sans', sans-serif;font-size:145px;">P<tspan x="884.975px 962.75px 1039.88px 1122.33px 1222.17px 1323.77px 1391.6px 1493.19px 1582.93px " y="1571.71px 1571.71px 1571.71px 1571.71px 1571.71px 1571.71px 1571.71px 1571.71px 1571.71px ">SYCHOLOGY</tspan></text></g></svg>