<?xml version="1.0" encoding="UTF-8" standalone="no"?>
<!DOCTYPE svg PUBLIC "-//W3C//DTD SVG 1.1//EN" "http://www.w3.org/Graphics/SVG/1.1/DTD/svg11.dtd">
<svg width="100%" height="100%" viewBox="0 0 1302 260" version="1.1" xmlns="http://www.w3.org/2000/svg" xmlns:xlink="http://www.w3.org/1999/xlink" xml:space="preserve" xmlns:serif="http://www.serif.com/" style="fill-rule:evenodd;clip-rule:evenodd;stroke-linejoin:round;stroke-miterlimit:2;">
    <g id="Artboard-black-v2" transform="matrix(1,0,0,1,0,7)">
        <rect x="-349.964" y="-2.316" width="1898.54" height="240.661" style="fill:none;"/>
    </g>
    <g transform="matrix(1.33333,0,0,1.33333,-3651.44,-531.163)">
        <g transform="matrix(1.16,0,0,1.08,2744.53,506.288)">
            <g transform="matrix(0.968276,0,0,1,0,0)">
                <g transform="matrix(138.889,0,0,138.889,0,0)">
                    <path d="M0.386,0.012C0.319,0.012 0.259,-0.004 0.207,-0.035C0.154,-0.066 0.114,-0.108 0.084,-0.163C0.054,-0.217 0.039,-0.279 0.039,-0.35C0.039,-0.421 0.054,-0.483 0.084,-0.538C0.113,-0.592 0.154,-0.634 0.206,-0.666C0.258,-0.697 0.317,-0.712 0.385,-0.712C0.43,-0.712 0.473,-0.704 0.513,-0.688C0.553,-0.672 0.589,-0.649 0.62,-0.62C0.651,-0.591 0.675,-0.558 0.691,-0.52L0.585,-0.477C0.573,-0.503 0.557,-0.525 0.537,-0.545C0.516,-0.564 0.493,-0.579 0.467,-0.59C0.441,-0.6 0.414,-0.606 0.385,-0.606C0.341,-0.606 0.301,-0.595 0.267,-0.573C0.233,-0.551 0.206,-0.521 0.187,-0.483C0.167,-0.444 0.157,-0.4 0.157,-0.35C0.157,-0.3 0.167,-0.255 0.187,-0.217C0.206,-0.178 0.234,-0.148 0.268,-0.126C0.303,-0.104 0.343,-0.093 0.388,-0.093C0.418,-0.093 0.445,-0.099 0.471,-0.111C0.497,-0.122 0.519,-0.138 0.54,-0.159C0.56,-0.18 0.576,-0.204 0.588,-0.231L0.694,-0.188C0.677,-0.149 0.654,-0.114 0.623,-0.084C0.592,-0.053 0.556,-0.03 0.516,-0.013C0.475,0.004 0.432,0.012 0.386,0.012Z" style="fill:white;fill-rule:nonzero;"/>
                </g>
                <g transform="matrix(138.889,0,0,138.889,97.6808,0)">
                    <path d="M0.367,-0L0.362,-0.094L0.362,-0.257C0.362,-0.291 0.359,-0.319 0.351,-0.342C0.344,-0.365 0.333,-0.383 0.317,-0.396C0.302,-0.408 0.281,-0.414 0.255,-0.414C0.231,-0.414 0.21,-0.409 0.192,-0.399C0.174,-0.389 0.158,-0.373 0.146,-0.352L0.048,-0.388C0.058,-0.41 0.073,-0.43 0.091,-0.449C0.108,-0.468 0.131,-0.483 0.158,-0.495C0.185,-0.506 0.217,-0.512 0.255,-0.512C0.304,-0.512 0.345,-0.503 0.377,-0.484C0.409,-0.465 0.434,-0.437 0.449,-0.402C0.465,-0.367 0.473,-0.324 0.473,-0.274L0.47,-0L0.367,-0ZM0.223,0.012C0.163,0.012 0.117,-0.001 0.084,-0.028C0.051,-0.055 0.034,-0.093 0.034,-0.141C0.034,-0.193 0.052,-0.233 0.087,-0.26C0.122,-0.287 0.17,-0.301 0.233,-0.301L0.367,-0.301L0.367,-0.215L0.269,-0.215C0.224,-0.215 0.193,-0.209 0.175,-0.196C0.157,-0.184 0.148,-0.166 0.148,-0.144C0.148,-0.125 0.156,-0.11 0.172,-0.099C0.187,-0.088 0.209,-0.082 0.237,-0.082C0.262,-0.082 0.284,-0.088 0.303,-0.099C0.321,-0.11 0.336,-0.125 0.347,-0.144C0.357,-0.163 0.362,-0.184 0.362,-0.207L0.395,-0.207C0.395,-0.139 0.381,-0.085 0.354,-0.046C0.326,-0.007 0.283,0.012 0.223,0.012Z" style="fill:white;fill-rule:nonzero;"/>
                </g>
                <g transform="matrix(138.889,0,0,138.889,167.672,0)">
                    <path d="M0.136,-0.266C0.136,-0.32 0.146,-0.364 0.167,-0.399C0.188,-0.434 0.215,-0.46 0.248,-0.477C0.28,-0.494 0.315,-0.502 0.351,-0.502L0.351,-0.395C0.321,-0.395 0.292,-0.391 0.265,-0.382C0.238,-0.374 0.216,-0.361 0.199,-0.342C0.182,-0.323 0.174,-0.298 0.174,-0.268L0.136,-0.266ZM0.062,-0L0.062,-0.5L0.174,-0.5L0.174,-0L0.062,-0Z" style="fill:white;fill-rule:nonzero;"/>
                </g>
                <g transform="matrix(138.889,0,0,138.889,215.29,0)">
                    <path d="M0.062,-0L0.062,-0.5L0.167,-0.5L0.172,-0.433C0.187,-0.459 0.207,-0.478 0.231,-0.492C0.255,-0.505 0.282,-0.512 0.313,-0.512C0.353,-0.512 0.387,-0.503 0.415,-0.485C0.443,-0.467 0.463,-0.44 0.476,-0.403C0.491,-0.438 0.511,-0.465 0.538,-0.484C0.565,-0.503 0.596,-0.512 0.632,-0.512C0.69,-0.512 0.734,-0.493 0.766,-0.456C0.797,-0.419 0.813,-0.363 0.812,-0.286L0.812,-0L0.701,-0L0.701,-0.256C0.701,-0.296 0.696,-0.327 0.688,-0.348C0.679,-0.37 0.668,-0.385 0.653,-0.394C0.639,-0.403 0.622,-0.407 0.602,-0.407C0.567,-0.408 0.54,-0.396 0.521,-0.37C0.502,-0.345 0.493,-0.308 0.493,-0.261L0.493,-0L0.381,-0L0.381,-0.256C0.381,-0.296 0.377,-0.327 0.369,-0.348C0.36,-0.37 0.349,-0.385 0.334,-0.394C0.319,-0.403 0.302,-0.407 0.283,-0.407C0.248,-0.408 0.221,-0.396 0.202,-0.37C0.183,-0.345 0.174,-0.308 0.174,-0.261L0.174,-0L0.062,-0Z" style="fill:white;fill-rule:nonzero;"/>
                </g>
                <g transform="matrix(138.889,0,0,138.889,332.462,0)">
                    <path d="M0.285,0.012C0.236,0.012 0.193,0.001 0.155,-0.022C0.118,-0.044 0.088,-0.075 0.066,-0.114C0.045,-0.153 0.034,-0.199 0.034,-0.25C0.034,-0.301 0.045,-0.347 0.067,-0.386C0.089,-0.425 0.119,-0.456 0.157,-0.479C0.195,-0.501 0.239,-0.512 0.289,-0.512C0.334,-0.512 0.374,-0.501 0.41,-0.478C0.446,-0.455 0.474,-0.421 0.495,-0.378C0.516,-0.335 0.527,-0.283 0.527,-0.223L0.134,-0.223L0.149,-0.237C0.149,-0.206 0.156,-0.18 0.169,-0.157C0.182,-0.135 0.2,-0.118 0.222,-0.106C0.244,-0.094 0.268,-0.088 0.295,-0.088C0.326,-0.088 0.351,-0.095 0.371,-0.109C0.391,-0.123 0.407,-0.14 0.418,-0.162L0.517,-0.12C0.503,-0.093 0.485,-0.07 0.464,-0.05C0.442,-0.03 0.416,-0.015 0.386,-0.004C0.357,0.007 0.323,0.012 0.285,0.012ZM0.156,-0.295L0.14,-0.309L0.422,-0.309L0.407,-0.295C0.407,-0.322 0.401,-0.344 0.389,-0.362C0.377,-0.38 0.362,-0.394 0.344,-0.403C0.326,-0.412 0.306,-0.416 0.286,-0.416C0.266,-0.416 0.246,-0.412 0.226,-0.403C0.206,-0.394 0.189,-0.38 0.176,-0.362C0.162,-0.345 0.156,-0.322 0.156,-0.295Z" style="fill:white;fill-rule:nonzero;"/>
                </g>
                <g transform="matrix(138.889,0,0,138.889,406.196,0)">
                    <rect x="0.062" y="-0.7" width="0.112" height="0.7" style="fill:white;fill-rule:nonzero;"/>
                </g>
                <g transform="matrix(138.889,0,0,138.889,436.169,0)">
                </g>
                <g transform="matrix(138.889,0,0,138.889,467.515,0)">
                    <path d="M0.083,-0L0.083,-0.7L0.33,-0.7C0.378,-0.7 0.42,-0.69 0.457,-0.671C0.494,-0.652 0.523,-0.625 0.543,-0.59C0.564,-0.556 0.574,-0.516 0.574,-0.471C0.574,-0.427 0.565,-0.387 0.545,-0.353C0.525,-0.318 0.498,-0.291 0.464,-0.271C0.43,-0.252 0.39,-0.242 0.345,-0.242L0.199,-0.242L0.199,-0L0.083,-0ZM0.199,-0.349L0.343,-0.349C0.377,-0.349 0.404,-0.36 0.425,-0.383C0.446,-0.406 0.457,-0.435 0.457,-0.471C0.457,-0.508 0.445,-0.538 0.421,-0.56C0.397,-0.583 0.366,-0.594 0.328,-0.594L0.199,-0.594L0.199,-0.349Z" style="fill:white;fill-rule:nonzero;"/>
                </g>
                <g transform="matrix(138.889,0,0,138.889,548.388,0)">
                    <path d="M0.292,0.012C0.242,0.012 0.197,0.001 0.158,-0.022C0.12,-0.044 0.089,-0.075 0.067,-0.114C0.045,-0.153 0.034,-0.199 0.034,-0.25C0.034,-0.301 0.045,-0.347 0.067,-0.386C0.088,-0.425 0.119,-0.456 0.157,-0.479C0.196,-0.501 0.24,-0.512 0.29,-0.512C0.34,-0.512 0.385,-0.501 0.423,-0.479C0.462,-0.456 0.492,-0.425 0.514,-0.386C0.536,-0.347 0.546,-0.301 0.546,-0.25C0.546,-0.199 0.536,-0.153 0.514,-0.114C0.492,-0.075 0.462,-0.044 0.424,-0.022C0.386,0.001 0.342,0.012 0.292,0.012ZM0.292,-0.091C0.32,-0.091 0.344,-0.098 0.365,-0.111C0.386,-0.125 0.403,-0.143 0.415,-0.167C0.427,-0.191 0.433,-0.219 0.433,-0.25C0.433,-0.281 0.427,-0.309 0.415,-0.333C0.402,-0.357 0.386,-0.375 0.364,-0.389C0.342,-0.402 0.318,-0.409 0.29,-0.409C0.262,-0.409 0.238,-0.402 0.216,-0.389C0.195,-0.375 0.178,-0.357 0.166,-0.333C0.154,-0.309 0.148,-0.281 0.148,-0.25C0.148,-0.219 0.154,-0.191 0.166,-0.167C0.179,-0.144 0.196,-0.125 0.217,-0.111C0.239,-0.098 0.264,-0.091 0.292,-0.091Z" style="fill:white;fill-rule:nonzero;"/>
                </g>
                <g transform="matrix(138.889,0,0,138.889,626.266,0)">
                    <path d="M0.397,-0L0.391,-0.092L0.391,-0.5L0.502,-0.5L0.502,-0L0.397,-0ZM0.051,-0.244L0.051,-0.5L0.163,-0.5L0.163,-0.244L0.051,-0.244ZM0.163,-0.244C0.163,-0.204 0.168,-0.174 0.177,-0.152C0.186,-0.13 0.199,-0.115 0.216,-0.106C0.232,-0.097 0.251,-0.093 0.272,-0.093C0.31,-0.092 0.339,-0.105 0.36,-0.13C0.38,-0.156 0.391,-0.192 0.391,-0.239L0.433,-0.239C0.433,-0.186 0.425,-0.141 0.409,-0.103C0.394,-0.066 0.372,-0.037 0.343,-0.018C0.315,0.002 0.281,0.012 0.241,0.012C0.202,0.012 0.168,0.004 0.14,-0.012C0.111,-0.028 0.089,-0.053 0.074,-0.087C0.059,-0.121 0.051,-0.164 0.051,-0.218L0.051,-0.244L0.163,-0.244Z" style="fill:white;fill-rule:nonzero;"/>
                </g>
                <g transform="matrix(138.889,0,0,138.889,701.866,0)">
                    <path d="M0.062,-0L0.062,-0.5L0.167,-0.5L0.174,-0.408L0.174,-0L0.062,-0ZM0.401,-0L0.401,-0.256L0.513,-0.256L0.513,-0L0.401,-0ZM0.401,-0.256C0.401,-0.296 0.397,-0.327 0.387,-0.348C0.378,-0.37 0.365,-0.385 0.349,-0.394C0.333,-0.403 0.314,-0.407 0.292,-0.407C0.255,-0.408 0.225,-0.396 0.205,-0.37C0.184,-0.345 0.174,-0.308 0.174,-0.261L0.132,-0.261C0.132,-0.314 0.139,-0.359 0.155,-0.397C0.171,-0.434 0.193,-0.463 0.221,-0.482C0.25,-0.502 0.284,-0.512 0.323,-0.512C0.363,-0.512 0.397,-0.504 0.425,-0.488C0.453,-0.472 0.475,-0.447 0.491,-0.414C0.506,-0.38 0.513,-0.336 0.513,-0.282L0.513,-0.256L0.401,-0.256Z" style="fill:white;fill-rule:nonzero;"/>
                </g>
                <g transform="matrix(138.889,0,0,138.889,777.466,0)">
                    <path d="M0.423,-0L0.418,-0.093L0.418,-0.7L0.529,-0.7L0.529,-0L0.423,-0ZM0.26,0.012C0.215,0.012 0.175,0.001 0.141,-0.02C0.107,-0.042 0.081,-0.073 0.062,-0.112C0.044,-0.152 0.034,-0.198 0.034,-0.25C0.034,-0.303 0.044,-0.349 0.062,-0.388C0.081,-0.428 0.107,-0.458 0.141,-0.48C0.175,-0.501 0.215,-0.512 0.26,-0.512C0.302,-0.512 0.338,-0.501 0.368,-0.48C0.398,-0.458 0.422,-0.428 0.438,-0.388C0.454,-0.349 0.462,-0.303 0.462,-0.25C0.462,-0.198 0.454,-0.152 0.438,-0.112C0.422,-0.073 0.398,-0.042 0.368,-0.02C0.338,0.001 0.302,0.012 0.26,0.012ZM0.288,-0.09C0.313,-0.09 0.336,-0.097 0.355,-0.111C0.375,-0.124 0.39,-0.143 0.401,-0.167C0.413,-0.191 0.418,-0.219 0.418,-0.25C0.418,-0.281 0.413,-0.309 0.401,-0.333C0.39,-0.357 0.375,-0.376 0.355,-0.389C0.336,-0.403 0.313,-0.409 0.287,-0.409C0.26,-0.409 0.236,-0.403 0.216,-0.389C0.195,-0.376 0.179,-0.357 0.167,-0.333C0.156,-0.309 0.15,-0.281 0.149,-0.25C0.15,-0.219 0.156,-0.191 0.168,-0.167C0.179,-0.143 0.196,-0.124 0.217,-0.111C0.237,-0.097 0.261,-0.09 0.288,-0.09Z" style="fill:white;fill-rule:nonzero;"/>
                </g>
                <g transform="matrix(138.889,0,0,138.889,859.614,0)">
                </g>
            </g>
        </g>
        <g transform="matrix(0.750002,0,0,0.750002,2355.12,446.043)">
            <g transform="matrix(1.15,0,0,1.1,-78.4204,-17.145)">
                <g transform="matrix(96,0,0,96,522.803,171.45)">
                    <path d="M0.089,-0L0.089,-0.7L0.325,-0.7C0.372,-0.7 0.413,-0.691 0.449,-0.672C0.485,-0.653 0.513,-0.626 0.533,-0.592C0.553,-0.558 0.563,-0.519 0.563,-0.475C0.563,-0.432 0.554,-0.393 0.535,-0.359C0.516,-0.325 0.49,-0.298 0.458,-0.279C0.425,-0.26 0.387,-0.25 0.344,-0.25L0.187,-0.25L0.187,-0L0.089,-0ZM0.187,-0.341L0.343,-0.341C0.378,-0.341 0.407,-0.353 0.43,-0.378C0.452,-0.403 0.464,-0.436 0.464,-0.475C0.464,-0.515 0.45,-0.548 0.424,-0.573C0.398,-0.598 0.365,-0.61 0.324,-0.61L0.187,-0.61L0.187,-0.341Z" style="fill:white;fill-rule:nonzero;stroke:white;stroke-width:0.01px;"/>
                </g>
                <g transform="matrix(96,0,0,96,579.663,171.45)">
                    <path d="M0.245,0.012C0.209,0.012 0.178,0.007 0.15,-0.004C0.123,-0.014 0.099,-0.029 0.08,-0.047C0.061,-0.065 0.047,-0.086 0.038,-0.108L0.12,-0.144C0.131,-0.123 0.147,-0.106 0.168,-0.093C0.189,-0.079 0.213,-0.073 0.239,-0.073C0.268,-0.073 0.292,-0.078 0.31,-0.089C0.329,-0.099 0.338,-0.115 0.338,-0.134C0.338,-0.152 0.331,-0.167 0.317,-0.178C0.303,-0.188 0.283,-0.197 0.256,-0.204L0.209,-0.216C0.163,-0.229 0.126,-0.248 0.101,-0.273C0.075,-0.298 0.062,-0.327 0.062,-0.359C0.062,-0.407 0.077,-0.445 0.109,-0.472C0.141,-0.499 0.187,-0.512 0.248,-0.512C0.278,-0.512 0.305,-0.508 0.33,-0.499C0.355,-0.49 0.377,-0.478 0.394,-0.462C0.412,-0.446 0.425,-0.427 0.432,-0.405L0.352,-0.369C0.344,-0.389 0.331,-0.404 0.311,-0.414C0.292,-0.423 0.269,-0.428 0.243,-0.428C0.216,-0.428 0.195,-0.422 0.18,-0.411C0.165,-0.399 0.157,-0.383 0.157,-0.362C0.157,-0.351 0.164,-0.34 0.177,-0.329C0.189,-0.319 0.209,-0.311 0.234,-0.304L0.288,-0.291C0.32,-0.283 0.347,-0.271 0.369,-0.255C0.39,-0.238 0.406,-0.22 0.417,-0.2C0.428,-0.179 0.433,-0.158 0.433,-0.136C0.433,-0.106 0.425,-0.08 0.408,-0.057C0.392,-0.035 0.369,-0.018 0.341,-0.006C0.313,0.006 0.281,0.012 0.245,0.012Z" style="fill:white;fill-rule:nonzero;stroke:white;stroke-width:0.01px;"/>
                </g>
                <g transform="matrix(96,0,0,96,625.359,171.45)">
                    <path d="M0.127,0.212C0.113,0.212 0.096,0.209 0.078,0.204C0.061,0.198 0.043,0.191 0.024,0.183L0.059,0.105C0.074,0.111 0.086,0.116 0.097,0.12C0.108,0.123 0.117,0.125 0.124,0.125C0.141,0.125 0.155,0.12 0.167,0.111C0.178,0.102 0.188,0.089 0.195,0.072L0.253,-0.065L0.431,-0.5L0.533,-0.5L0.296,0.062C0.283,0.093 0.27,0.119 0.256,0.142C0.242,0.164 0.225,0.182 0.204,0.194C0.184,0.206 0.158,0.212 0.127,0.212ZM0.227,-0L0.008,-0.5L0.109,-0.5L0.29,-0.066L0.319,-0L0.227,-0Z" style="fill:white;fill-rule:nonzero;stroke:white;stroke-width:0.01px;"/>
                </g>
                <g transform="matrix(96,0,0,96,677.07,171.45)">
                    <path d="M0.294,0.012C0.244,0.012 0.2,0.001 0.161,-0.022C0.123,-0.044 0.092,-0.075 0.071,-0.114C0.049,-0.154 0.038,-0.199 0.038,-0.25C0.038,-0.301 0.049,-0.347 0.07,-0.386C0.092,-0.425 0.122,-0.456 0.16,-0.479C0.199,-0.501 0.243,-0.512 0.292,-0.512C0.341,-0.512 0.385,-0.501 0.424,-0.478C0.462,-0.455 0.492,-0.423 0.511,-0.381L0.425,-0.345C0.412,-0.369 0.394,-0.389 0.37,-0.403C0.346,-0.417 0.319,-0.424 0.289,-0.424C0.259,-0.424 0.232,-0.417 0.209,-0.402C0.185,-0.387 0.167,-0.367 0.154,-0.34C0.14,-0.314 0.134,-0.284 0.134,-0.25C0.134,-0.216 0.14,-0.186 0.154,-0.16C0.167,-0.134 0.186,-0.113 0.21,-0.098C0.234,-0.083 0.261,-0.076 0.291,-0.076C0.322,-0.076 0.349,-0.084 0.373,-0.099C0.397,-0.115 0.415,-0.136 0.427,-0.163L0.514,-0.128C0.495,-0.084 0.465,-0.049 0.427,-0.025C0.388,-0 0.343,0.012 0.294,0.012Z" style="fill:white;fill-rule:nonzero;stroke:white;stroke-width:0.01px;"/>
                </g>
                <g transform="matrix(96,0,0,96,730.077,171.45)">
                    <path d="M0.067,-0L0.067,-0.7L0.161,-0.7L0.161,-0L0.067,-0ZM0.413,-0L0.413,-0.256L0.507,-0.256L0.507,-0L0.413,-0ZM0.413,-0.256C0.413,-0.301 0.408,-0.336 0.397,-0.359C0.386,-0.383 0.372,-0.4 0.354,-0.409C0.335,-0.419 0.314,-0.423 0.291,-0.424C0.25,-0.424 0.218,-0.41 0.195,-0.381C0.173,-0.353 0.161,-0.312 0.161,-0.26L0.121,-0.26C0.121,-0.313 0.129,-0.358 0.144,-0.396C0.16,-0.433 0.182,-0.462 0.211,-0.482C0.24,-0.502 0.275,-0.512 0.315,-0.512C0.354,-0.512 0.388,-0.504 0.417,-0.488C0.446,-0.472 0.468,-0.448 0.484,-0.414C0.5,-0.38 0.508,-0.336 0.507,-0.281L0.507,-0.256L0.413,-0.256Z" style="fill:white;fill-rule:nonzero;stroke:white;stroke-width:0.01px;"/>
                </g>
                <g transform="matrix(96,0,0,96,784.937,171.45)">
                    <path d="M0.292,0.012C0.242,0.012 0.198,0.001 0.16,-0.022C0.122,-0.044 0.092,-0.075 0.07,-0.114C0.049,-0.153 0.038,-0.199 0.038,-0.25C0.038,-0.301 0.048,-0.347 0.07,-0.386C0.091,-0.425 0.121,-0.456 0.159,-0.479C0.197,-0.501 0.241,-0.512 0.29,-0.512C0.339,-0.512 0.383,-0.501 0.421,-0.479C0.459,-0.456 0.489,-0.425 0.51,-0.386C0.532,-0.347 0.542,-0.301 0.542,-0.25C0.542,-0.199 0.532,-0.153 0.51,-0.114C0.489,-0.075 0.459,-0.044 0.422,-0.022C0.384,0.001 0.34,0.012 0.292,0.012ZM0.292,-0.075C0.322,-0.075 0.349,-0.082 0.372,-0.097C0.395,-0.112 0.413,-0.133 0.427,-0.159C0.44,-0.185 0.446,-0.216 0.446,-0.25C0.446,-0.284 0.44,-0.315 0.427,-0.341C0.413,-0.367 0.395,-0.388 0.371,-0.403C0.347,-0.418 0.32,-0.425 0.29,-0.425C0.259,-0.425 0.232,-0.418 0.209,-0.403C0.185,-0.388 0.167,-0.367 0.154,-0.341C0.14,-0.315 0.134,-0.284 0.134,-0.25C0.134,-0.216 0.14,-0.185 0.154,-0.159C0.167,-0.133 0.186,-0.112 0.21,-0.097C0.234,-0.082 0.261,-0.075 0.292,-0.075Z" style="fill:white;fill-rule:nonzero;stroke:white;stroke-width:0.01px;"/>
                </g>
                <g transform="matrix(96,0,0,96,841.591,171.45)">
                    <rect x="0.066" y="-0.7" width="0.094" height="0.7" style="fill:white;fill-rule:nonzero;stroke:white;stroke-width:0.01px;"/>
                </g>
                <g transform="matrix(96,0,0,96,864.362,171.45)">
                    <path d="M0.292,0.012C0.242,0.012 0.198,0.001 0.16,-0.022C0.122,-0.044 0.092,-0.075 0.07,-0.114C0.049,-0.153 0.038,-0.199 0.038,-0.25C0.038,-0.301 0.048,-0.347 0.07,-0.386C0.091,-0.425 0.121,-0.456 0.159,-0.479C0.197,-0.501 0.241,-0.512 0.29,-0.512C0.339,-0.512 0.383,-0.501 0.421,-0.479C0.459,-0.456 0.489,-0.425 0.51,-0.386C0.532,-0.347 0.542,-0.301 0.542,-0.25C0.542,-0.199 0.532,-0.153 0.51,-0.114C0.489,-0.075 0.459,-0.044 0.422,-0.022C0.384,0.001 0.34,0.012 0.292,0.012ZM0.292,-0.075C0.322,-0.075 0.349,-0.082 0.372,-0.097C0.395,-0.112 0.413,-0.133 0.427,-0.159C0.44,-0.185 0.446,-0.216 0.446,-0.25C0.446,-0.284 0.44,-0.315 0.427,-0.341C0.413,-0.367 0.395,-0.388 0.371,-0.403C0.347,-0.418 0.32,-0.425 0.29,-0.425C0.259,-0.425 0.232,-0.418 0.209,-0.403C0.185,-0.388 0.167,-0.367 0.154,-0.341C0.14,-0.315 0.134,-0.284 0.134,-0.25C0.134,-0.216 0.14,-0.185 0.154,-0.159C0.167,-0.133 0.186,-0.112 0.21,-0.097C0.234,-0.082 0.261,-0.075 0.292,-0.075Z" style="fill:white;fill-rule:nonzero;stroke:white;stroke-width:0.01px;"/>
                </g>
                <g transform="matrix(96,0,0,96,921.016,171.45)">
                    <path d="M0.273,0.213C0.24,0.213 0.209,0.21 0.182,0.203C0.155,0.197 0.132,0.19 0.113,0.182C0.095,0.174 0.081,0.167 0.071,0.161L0.107,0.084C0.116,0.089 0.128,0.095 0.144,0.102C0.16,0.109 0.179,0.115 0.2,0.12C0.222,0.126 0.245,0.128 0.271,0.128C0.302,0.128 0.329,0.122 0.353,0.11C0.377,0.097 0.396,0.078 0.41,0.052C0.423,0.026 0.43,-0.007 0.43,-0.048L0.43,-0.5L0.525,-0.5L0.525,-0.05C0.525,0.007 0.514,0.055 0.493,0.095C0.471,0.134 0.441,0.163 0.403,0.183C0.366,0.203 0.322,0.213 0.273,0.213ZM0.264,-0.007C0.219,-0.007 0.179,-0.017 0.146,-0.038C0.112,-0.059 0.085,-0.089 0.066,-0.126C0.047,-0.164 0.038,-0.207 0.038,-0.257C0.038,-0.308 0.047,-0.353 0.066,-0.391C0.085,-0.429 0.112,-0.459 0.146,-0.48C0.179,-0.501 0.219,-0.512 0.264,-0.512C0.305,-0.512 0.341,-0.501 0.372,-0.48C0.403,-0.459 0.427,-0.429 0.444,-0.39C0.461,-0.352 0.47,-0.307 0.47,-0.256C0.47,-0.206 0.461,-0.163 0.444,-0.126C0.427,-0.088 0.403,-0.059 0.372,-0.038C0.341,-0.017 0.305,-0.007 0.264,-0.007ZM0.288,-0.087C0.316,-0.087 0.34,-0.095 0.361,-0.11C0.382,-0.124 0.398,-0.145 0.41,-0.17C0.422,-0.196 0.428,-0.226 0.428,-0.259C0.428,-0.292 0.422,-0.321 0.41,-0.347C0.398,-0.372 0.382,-0.392 0.361,-0.407C0.34,-0.421 0.315,-0.428 0.287,-0.428C0.258,-0.428 0.232,-0.421 0.209,-0.407C0.187,-0.392 0.169,-0.372 0.157,-0.347C0.144,-0.321 0.138,-0.292 0.138,-0.259C0.138,-0.226 0.144,-0.196 0.157,-0.17C0.17,-0.145 0.188,-0.124 0.21,-0.11C0.233,-0.095 0.259,-0.087 0.288,-0.087Z" style="fill:white;fill-rule:nonzero;stroke:white;stroke-width:0.01px;"/>
                </g>
                <g transform="matrix(96,0,0,96,978.729,171.45)">
                    <path d="M0.072,-0L0.072,-0.5L0.167,-0.5L0.167,-0L0.072,-0ZM0.12,-0.606C0.105,-0.606 0.091,-0.612 0.08,-0.624C0.069,-0.635 0.063,-0.649 0.063,-0.664C0.063,-0.68 0.069,-0.694 0.08,-0.705C0.091,-0.716 0.105,-0.721 0.12,-0.721C0.136,-0.721 0.15,-0.716 0.161,-0.705C0.171,-0.694 0.177,-0.68 0.177,-0.664C0.177,-0.649 0.171,-0.635 0.161,-0.624C0.15,-0.612 0.136,-0.606 0.12,-0.606Z" style="fill:white;fill-rule:nonzero;stroke:white;stroke-width:0.01px;"/>
                </g>
                <g transform="matrix(96,0,0,96,1002.74,171.45)">
                    <path d="M0.245,0.012C0.209,0.012 0.178,0.007 0.15,-0.004C0.123,-0.014 0.099,-0.029 0.08,-0.047C0.061,-0.065 0.047,-0.086 0.038,-0.108L0.12,-0.144C0.131,-0.123 0.147,-0.106 0.168,-0.093C0.189,-0.079 0.213,-0.073 0.239,-0.073C0.268,-0.073 0.292,-0.078 0.31,-0.089C0.329,-0.099 0.338,-0.115 0.338,-0.134C0.338,-0.152 0.331,-0.167 0.317,-0.178C0.303,-0.188 0.283,-0.197 0.256,-0.204L0.209,-0.216C0.163,-0.229 0.126,-0.248 0.101,-0.273C0.075,-0.298 0.062,-0.327 0.062,-0.359C0.062,-0.407 0.077,-0.445 0.109,-0.472C0.141,-0.499 0.187,-0.512 0.248,-0.512C0.278,-0.512 0.305,-0.508 0.33,-0.499C0.355,-0.49 0.377,-0.478 0.394,-0.462C0.412,-0.446 0.425,-0.427 0.432,-0.405L0.352,-0.369C0.344,-0.389 0.331,-0.404 0.311,-0.414C0.292,-0.423 0.269,-0.428 0.243,-0.428C0.216,-0.428 0.195,-0.422 0.18,-0.411C0.165,-0.399 0.157,-0.383 0.157,-0.362C0.157,-0.351 0.164,-0.34 0.177,-0.329C0.189,-0.319 0.209,-0.311 0.234,-0.304L0.288,-0.291C0.32,-0.283 0.347,-0.271 0.369,-0.255C0.39,-0.238 0.406,-0.22 0.417,-0.2C0.428,-0.179 0.433,-0.158 0.433,-0.136C0.433,-0.106 0.425,-0.08 0.408,-0.057C0.392,-0.035 0.369,-0.018 0.341,-0.006C0.313,0.006 0.281,0.012 0.245,0.012Z" style="fill:white;fill-rule:nonzero;stroke:white;stroke-width:0.01px;"/>
                </g>
                <g transform="matrix(96,0,0,96,1048.43,171.45)">
                    <path d="M0.259,0.012C0.209,0.012 0.17,-0.001 0.143,-0.027C0.116,-0.052 0.102,-0.089 0.102,-0.137L0.102,-0.656L0.197,-0.656L0.197,-0.151C0.197,-0.126 0.203,-0.108 0.215,-0.095C0.228,-0.082 0.245,-0.075 0.269,-0.075C0.276,-0.075 0.283,-0.076 0.291,-0.079C0.299,-0.082 0.309,-0.087 0.32,-0.095L0.356,-0.021C0.339,-0.009 0.322,-0.001 0.306,0.004C0.291,0.009 0.275,0.012 0.259,0.012ZM0.017,-0.418L0.017,-0.5L0.339,-0.5L0.339,-0.418L0.017,-0.418Z" style="fill:white;fill-rule:nonzero;stroke:white;stroke-width:0.01px;"/>
                </g>
                <g transform="matrix(96,0,0,96,1085.33,171.45)">
                </g>
            </g>
        </g>
    </g>
</svg>
