<?xml version="1.0" encoding="UTF-8" standalone="no"?><!DOCTYPE svg PUBLIC "-//W3C//DTD SVG 1.1//EN" "http://www.w3.org/Graphics/SVG/1.1/DTD/svg11.dtd"><svg width="100%" height="100%" viewBox="0 0 8283 2473" version="1.1" xmlns="http://www.w3.org/2000/svg" xmlns:xlink="http://www.w3.org/1999/xlink" xml:space="preserve" xmlns:serif="http://www.serif.com/" style="fill-rule:evenodd;clip-rule:evenodd;stroke-linecap:square;stroke-miterlimit:1.5;"><rect id="Artboard-white" x="0" y="0" width="8282.35" height="2472.73" style="fill:none;"/><g><g><path d="M1621.98,2017.19c-0.125,54.474 -0.25,108.949 -0.375,163.423c557.682,53.457 1115.37,106.913 1673.05,160.37l0,-2227.84c-556.237,60.681 -1112.48,121.361 -1668.71,182.042c-0.109,47.492 -0.218,94.983 -0.327,142.475" style="fill:none;stroke:#fff;stroke-width:47.15px;"/></g></g><g transform="matrix(1.33333,0,0,1.33333,-487.367,-132.57)"><g transform="matrix(1.16,0,0,1.23,-71.8832,-220.278)"><text x="451.102px" y="957.729px" style="font-family:'FiraSans-Bold', 'Fira Sans', sans-serif;font-weight:700;font-size:425px;fill:#fff;">C<tspan x="699.141px 953.554px 1219.44px 1557.16px 1784.37px " y="957.729px 957.729px 957.729px 957.729px 957.729px ">ARMEL</tspan></text></g><g transform="matrix(1.29,0,0,1.23,-130.288,-319.944)"><g transform="matrix(458.333,0,0,458.333,1959.37,1391.06)"></g><text x="451.046px" y="1391.06px" style="font-family:'FiraSans-Bold', 'Fira Sans', sans-serif;font-weight:700;font-size:458.333px;fill:#fff;">P<tspan x="729.599px 1049.86px 1351.79px 1659.22px " y="1391.06px 1391.06px 1391.06px 1391.06px ">OUND</tspan></text></g></g><circle cx="3406.71" cy="466.746" r="58.242" style="fill:#fff;"/><g transform="matrix(0.899225,0,0,1,-20.1207,0)"><g transform="matrix(215,0,0,215,2309.64,1934.09)"></g><text x="1032.5px" y="1934.09px" style="font-family:'FiraSans-Regular', 'Fira Sans', sans-serif;font-size:215px;fill:#fff;">P<tspan x="1155.56px 1270.88px 1385.24px 1507.49px 1655.54px 1806.18px 1906.76px 2057.39px 2190.46px " y="1934.09px 1934.09px 1934.09px 1934.09px 1934.09px 1934.09px 1934.09px 1934.09px 1934.09px ">SYCHOLOGY</tspan></text></g><g transform="matrix(0.899225,0,0,1,-67.127,0)"><g transform="matrix(387,0,0,387,9255.93,1343.88)"></g><text x="4035.51px" y="1343.88px" style="font-family:'FiraSans-SemiBold', 'Fira Sans', sans-serif;font-weight:600;font-size:387px;fill:#fff;">C<tspan x="4259.83px 4489.94px 4730.9px 5037.64px 5245.32px 5443.97px 5540.06px 5773.66px 6044.42px 6300.85px 6562.7px 6815.92px 6912.02px 7139.61px 7354.93px 7572.21px 7796.53px 8058.77px 8329.52px 8515.49px 8786.25px 9028.64px " y="1343.88px 1343.88px 1343.88px 1343.88px 1343.88px 1343.88px 1343.88px 1343.88px 1343.88px 1343.88px 1343.88px 1343.88px 1343.88px 1343.88px 1343.88px 1343.88px 1343.88px 1343.88px 1343.88px 1343.88px 1343.88px 1343.88px ">CARMEL POUND PSYCHOLOGY</tspan></text></g></svg>