<svg width="130" height="156" viewBox="0 0 130 156" fill="none" xmlns="http://www.w3.org/2000/svg">
<g id="Arrow &#226;&#159;&#182;">
<path id="line" d="M128.51 81.3284C130.072 79.7663 130.072 77.2337 128.51 75.6716L103.054 50.2157C101.492 48.6536 98.9594 48.6536 97.3973 50.2157C95.8352 51.7778 95.8352 54.3105 97.3973 55.8726L120.025 78.5L97.3973 101.127C95.8352 102.69 95.8352 105.222 97.3973 106.784C98.9594 108.346 101.492 108.346 103.054 106.784L128.51 81.3284ZM21 82.5H125.682V74.5H21V82.5Z" fill="white"/>
<g id="Ellipse">
<circle cx="21" cy="79" r="13" fill="white"/>
<circle cx="21" cy="79" r="17" stroke="white" stroke-opacity="0.5" stroke-width="8"/>
</g>
<path id="Page link" d="M34.4602 36V12.7273H43.642C45.4072 12.7273 46.911 13.0644 48.1534 13.7386C49.3958 14.4053 50.3428 15.3333 50.9943 16.5227C51.6534 17.7045 51.983 19.0682 51.983 20.6136C51.983 22.1591 51.6496 23.5227 50.983 24.7045C50.3163 25.8864 49.3504 26.8068 48.0852 27.4659C46.8277 28.125 45.3049 28.4545 43.517 28.4545H37.6648V24.5114H42.7216C43.6686 24.5114 44.4489 24.3485 45.0625 24.0227C45.6837 23.6894 46.1458 23.2311 46.4489 22.6477C46.7595 22.0568 46.9148 21.3788 46.9148 20.6136C46.9148 19.8409 46.7595 19.1667 46.4489 18.5909C46.1458 18.0076 45.6837 17.5568 45.0625 17.2386C44.4413 16.9129 43.6534 16.75 42.6989 16.75H39.3807V36H34.4602ZM59.929 12.7273V36H55.0881V12.7273H59.929ZM68.7841 36.3295C67.6705 36.3295 66.678 36.1364 65.8068 35.75C64.9356 35.3561 64.2462 34.7765 63.7386 34.0114C63.2386 33.2386 62.9886 32.2765 62.9886 31.125C62.9886 30.1553 63.1667 29.3409 63.5227 28.6818C63.8788 28.0227 64.3636 27.4924 64.9773 27.0909C65.5909 26.6894 66.2879 26.3864 67.0682 26.1818C67.8561 25.9773 68.6818 25.8333 69.5455 25.75C70.5606 25.6439 71.3788 25.5455 72 25.4545C72.6212 25.3561 73.072 25.2121 73.3523 25.0227C73.6326 24.8333 73.7727 24.553 73.7727 24.1818V24.1136C73.7727 23.3939 73.5455 22.8371 73.0909 22.4432C72.6439 22.0492 72.0076 21.8523 71.1818 21.8523C70.3106 21.8523 69.6174 22.0455 69.1023 22.4318C68.5871 22.8106 68.2462 23.2879 68.0795 23.8636L63.6023 23.5C63.8295 22.4394 64.2765 21.5227 64.9432 20.75C65.6098 19.9697 66.4697 19.3712 67.5227 18.9545C68.5833 18.5303 69.8106 18.3182 71.2045 18.3182C72.1742 18.3182 73.1023 18.4318 73.9886 18.6591C74.8826 18.8864 75.6742 19.2386 76.3636 19.7159C77.0606 20.1932 77.6098 20.8068 78.0114 21.5568C78.4129 22.2992 78.6136 23.1894 78.6136 24.2273V36H74.0227V33.5795H73.8864C73.6061 34.125 73.2311 34.6061 72.7614 35.0227C72.2917 35.4318 71.7273 35.7538 71.0682 35.9886C70.4091 36.2159 69.6477 36.3295 68.7841 36.3295ZM70.1705 32.9886C70.8826 32.9886 71.5114 32.8485 72.0568 32.5682C72.6023 32.2803 73.0303 31.8939 73.3409 31.4091C73.6515 30.9242 73.8068 30.375 73.8068 29.7614V27.9091C73.6553 28.0076 73.447 28.0985 73.1818 28.1818C72.9242 28.2576 72.6326 28.3295 72.3068 28.3977C71.9811 28.4583 71.6553 28.5152 71.3295 28.5682C71.0038 28.6136 70.7083 28.6553 70.4432 28.6932C69.875 28.7765 69.3788 28.9091 68.9545 29.0909C68.5303 29.2727 68.2008 29.5189 67.9659 29.8295C67.7311 30.1326 67.6136 30.5114 67.6136 30.9659C67.6136 31.625 67.8523 32.1288 68.3295 32.4773C68.8144 32.8182 69.428 32.9886 70.1705 32.9886ZM84.733 42.5455C84.1193 42.5455 83.5436 42.4962 83.0057 42.3977C82.4754 42.3068 82.036 42.1894 81.6875 42.0455L82.7784 38.4318C83.3466 38.6061 83.858 38.7008 84.3125 38.7159C84.7746 38.7311 85.1723 38.625 85.5057 38.3977C85.8466 38.1705 86.1231 37.7841 86.3352 37.2386L86.6193 36.5L80.358 18.5455H85.4489L89.0625 31.3636H89.2443L92.892 18.5455H98.017L91.233 37.8864C90.9072 38.8258 90.464 39.6439 89.9034 40.3409C89.3504 41.0455 88.6496 41.5871 87.8011 41.9659C86.9527 42.3523 85.9299 42.5455 84.733 42.5455Z" fill="white" fill-opacity="0.75"/>
</g>
</svg>
