<svg width="25" height="25" viewBox="0 0 25 25" fill="none" xmlns="http://www.w3.org/2000/svg">
<g id="calendar ">
<path id="Vector" d="M12.5 19.5C12.6978 19.5 12.8911 19.4414 13.0556 19.3315C13.22 19.2216 13.3482 19.0654 13.4239 18.8827C13.4996 18.7 13.5194 18.4989 13.4808 18.3049C13.4422 18.1109 13.347 17.9327 13.2071 17.7929C13.0673 17.653 12.8891 17.5578 12.6951 17.5192C12.5011 17.4806 12.3 17.5004 12.1173 17.5761C11.9346 17.6518 11.7784 17.78 11.6685 17.9444C11.5586 18.1089 11.5 18.3022 11.5 18.5C11.5 18.7652 11.6054 19.0196 11.7929 19.2071C11.9804 19.3946 12.2348 19.5 12.5 19.5ZM17.5 19.5C17.6978 19.5 17.8911 19.4414 18.0556 19.3315C18.22 19.2216 18.3482 19.0654 18.4239 18.8827C18.4996 18.7 18.5194 18.4989 18.4808 18.3049C18.4422 18.1109 18.347 17.9327 18.2071 17.7929C18.0673 17.653 17.8891 17.5578 17.6951 17.5192C17.5011 17.4806 17.3 17.5004 17.1173 17.5761C16.9346 17.6518 16.7784 17.78 16.6685 17.9444C16.5586 18.1089 16.5 18.3022 16.5 18.5C16.5 18.7652 16.6054 19.0196 16.7929 19.2071C16.9804 19.3946 17.2348 19.5 17.5 19.5ZM17.5 15.5C17.6978 15.5 17.8911 15.4414 18.0556 15.3315C18.22 15.2216 18.3482 15.0654 18.4239 14.8827C18.4996 14.7 18.5194 14.4989 18.4808 14.3049C18.4422 14.1109 18.347 13.9327 18.2071 13.7929C18.0673 13.653 17.8891 13.5578 17.6951 13.5192C17.5011 13.4806 17.3 13.5004 17.1173 13.5761C16.9346 13.6518 16.7784 13.78 16.6685 13.9444C16.5586 14.1089 16.5 14.3022 16.5 14.5C16.5 14.7652 16.6054 15.0196 16.7929 15.2071C16.9804 15.3946 17.2348 15.5 17.5 15.5ZM12.5 15.5C12.6978 15.5 12.8911 15.4414 13.0556 15.3315C13.22 15.2216 13.3482 15.0654 13.4239 14.8827C13.4996 14.7 13.5194 14.4989 13.4808 14.3049C13.4422 14.1109 13.347 13.9327 13.2071 13.7929C13.0673 13.653 12.8891 13.5578 12.6951 13.5192C12.5011 13.4806 12.3 13.5004 12.1173 13.5761C11.9346 13.6518 11.7784 13.78 11.6685 13.9444C11.5586 14.1089 11.5 14.3022 11.5 14.5C11.5 14.7652 11.6054 15.0196 11.7929 15.2071C11.9804 15.3946 12.2348 15.5 12.5 15.5ZM19.5 3.5H18.5V2.5C18.5 2.23478 18.3946 1.98043 18.2071 1.79289C18.0196 1.60536 17.7652 1.5 17.5 1.5C17.2348 1.5 16.9804 1.60536 16.7929 1.79289C16.6054 1.98043 16.5 2.23478 16.5 2.5V3.5H8.5V2.5C8.5 2.23478 8.39464 1.98043 8.20711 1.79289C8.01957 1.60536 7.76522 1.5 7.5 1.5C7.23478 1.5 6.98043 1.60536 6.79289 1.79289C6.60536 1.98043 6.5 2.23478 6.5 2.5V3.5H5.5C4.70435 3.5 3.94129 3.81607 3.37868 4.37868C2.81607 4.94129 2.5 5.70435 2.5 6.5V20.5C2.5 21.2956 2.81607 22.0587 3.37868 22.6213C3.94129 23.1839 4.70435 23.5 5.5 23.5H19.5C20.2956 23.5 21.0587 23.1839 21.6213 22.6213C22.1839 22.0587 22.5 21.2956 22.5 20.5V6.5C22.5 5.70435 22.1839 4.94129 21.6213 4.37868C21.0587 3.81607 20.2956 3.5 19.5 3.5ZM20.5 20.5C20.5 20.7652 20.3946 21.0196 20.2071 21.2071C20.0196 21.3946 19.7652 21.5 19.5 21.5H5.5C5.23478 21.5 4.98043 21.3946 4.79289 21.2071C4.60536 21.0196 4.5 20.7652 4.5 20.5V11.5H20.5V20.5ZM20.5 9.5H4.5V6.5C4.5 6.23478 4.60536 5.98043 4.79289 5.79289C4.98043 5.60536 5.23478 5.5 5.5 5.5H6.5V6.5C6.5 6.76522 6.60536 7.01957 6.79289 7.20711C6.98043 7.39464 7.23478 7.5 7.5 7.5C7.76522 7.5 8.01957 7.39464 8.20711 7.20711C8.39464 7.01957 8.5 6.76522 8.5 6.5V5.5H16.5V6.5C16.5 6.76522 16.6054 7.01957 16.7929 7.20711C16.9804 7.39464 17.2348 7.5 17.5 7.5C17.7652 7.5 18.0196 7.39464 18.2071 7.20711C18.3946 7.01957 18.5 6.76522 18.5 6.5V5.5H19.5C19.7652 5.5 20.0196 5.60536 20.2071 5.79289C20.3946 5.98043 20.5 6.23478 20.5 6.5V9.5ZM7.5 15.5C7.69778 15.5 7.89112 15.4414 8.05557 15.3315C8.22002 15.2216 8.34819 15.0654 8.42388 14.8827C8.49957 14.7 8.51937 14.4989 8.48079 14.3049C8.4422 14.1109 8.34696 13.9327 8.20711 13.7929C8.06725 13.653 7.88907 13.5578 7.69509 13.5192C7.50111 13.4806 7.30004 13.5004 7.11732 13.5761C6.93459 13.6518 6.77841 13.78 6.66853 13.9444C6.55865 14.1089 6.5 14.3022 6.5 14.5C6.5 14.7652 6.60536 15.0196 6.79289 15.2071C6.98043 15.3946 7.23478 15.5 7.5 15.5ZM7.5 19.5C7.69778 19.5 7.89112 19.4414 8.05557 19.3315C8.22002 19.2216 8.34819 19.0654 8.42388 18.8827C8.49957 18.7 8.51937 18.4989 8.48079 18.3049C8.4422 18.1109 8.34696 17.9327 8.20711 17.7929C8.06725 17.653 7.88907 17.5578 7.69509 17.5192C7.50111 17.4806 7.30004 17.5004 7.11732 17.5761C6.93459 17.6518 6.77841 17.78 6.66853 17.9444C6.55865 18.1089 6.5 18.3022 6.5 18.5C6.5 18.7652 6.60536 19.0196 6.79289 19.2071C6.98043 19.3946 7.23478 19.5 7.5 19.5Z" fill="white"/>
</g>
</svg>
