<svg width="131" height="131" viewBox="0 0 131 131" fill="none" xmlns="http://www.w3.org/2000/svg">
<g clip-path="url(#clip0_3132_489)">
<path d="M130.966 63.3627C129.867 28.95 102.05 1.13382 67.6378 0.0348553C48.9131 -0.559228 31.395 6.56793 18.4484 19.9348C6.00209 32.7849 -0.537426 49.7254 0.0345859 67.6381C1.13263 102.05 28.9497 129.867 63.3615 130.965C64.0779 130.988 64.7878 130.999 65.4996 130.999C83.3902 130.999 100.1 123.92 112.551 111.065C124.997 98.2159 131.538 81.2744 130.966 63.3627ZM102.643 101.469C92.8137 111.617 79.6225 117.205 65.4996 117.205C64.935 117.205 64.3703 117.196 63.8011 117.179C36.6425 116.312 14.689 94.358 13.8208 67.1985C13.3693 53.0527 18.5312 39.6757 28.3565 29.5321C38.1856 19.3839 51.3768 13.7953 65.4996 13.7953C66.0643 13.7953 66.629 13.8045 67.1982 13.822C94.3568 14.6892 116.31 36.6427 117.178 63.8023C117.63 77.9481 112.467 91.3251 102.643 101.469Z" fill="white"/>
<path d="M86.9834 61.6945L57.9377 40.8685C54.8394 38.6466 50.5264 40.8611 50.5264 44.6739V86.3269C50.5264 90.1397 54.8394 92.3542 57.9377 90.1323L86.9825 69.3054C89.5887 67.4376 89.5887 63.5632 86.9834 61.6945Z" fill="white"/>
</g>
<defs>
<clipPath id="clip0_3132_489">
<rect width="131" height="131" fill="white"/>
</clipPath>
</defs>
</svg>
